Coordinates
version=1
nRows=15
nColumns=46
inDegrees=yes

Units are S.I. units (second, meters, Newtons, ...)
Angles are in degrees.

endheader
time	pelvis_tilt	pelvis_list	pelvis_rotation	pelvis_tx	pelvis_ty	pelvis_tz	bb_angle	bb_tx	bb_ty	bb_tz	hip_flexion_r	hip_adduction_r	hip_rotation_r	knee_angle_r	knee_angle_r_beta	ankle_angle_r	subtalar_angle_r	mtp_angle_r	crank_angle_r	hip_flexion_l	hip_adduction_l	hip_rotation_l	knee_angle_l	knee_angle_l_beta	ankle_angle_l	subtalar_angle_l	mtp_angle_l	crank_angle_l	lumbar_extension	lumbar_bending	lumbar_rotation	arm_flex_r	arm_add_r	arm_rot_r	elbow_flex_r	pro_sup_r	wrist_flex_r	wrist_dev_r	arm_flex_l	arm_add_l	arm_rot_l	elbow_flex_l	pro_sup_l	wrist_flex_l	wrist_dev_l
      2.50500000	    -13.41833025	     -0.39960577	      1.82531658	      0.18318598	      1.13594932	     -0.20568169	      0.00000000	      0.50000000	      0.00000000	      0.25000000	     67.68901330	      0.63626636	      6.26834812	    105.45496492	      1.84053635	     -6.91377789	    -13.89835782	      0.00000000	      0.00000000	     39.37767801	     -4.28338335	      3.83559545	     26.98978360	      0.47106059	     -4.84404356	     -2.22882976	      0.00000000	      0.00000000	    -60.54530243	      1.35220684	     -7.14439334	     87.39677842	    -12.26001594	     51.53649087	     48.25113237	     44.46777665	      0.00000000	      0.00000000	     77.28868285	    -26.71237266	     28.72308457	     61.31463684	     49.46219354	      0.00000000	      0.00000000
      2.51000000	    -13.28825362	     -0.78958013	      1.00190773	      0.18284142	      1.13564964	     -0.20636199	      0.00000000	      0.50000000	      0.00000000	      0.25000000	     68.92300214	      1.48328697	      6.31510582	    106.72469176	      1.86269726	     -6.00361134	    -13.64699275	      0.00000000	      0.00000000	     38.01001998	     -5.39213539	      2.13165947	     25.33439566	      0.44216862	     -5.19782970	     -1.78233174	      0.00000000	      0.00000000	    -60.57210606	      1.59810064	     -5.88388847	     87.64839108	    -12.59980872	     51.48903957	     48.69008999	     44.65187271	      0.00000000	      0.00000000	     77.04407743	    -26.63167235	     28.74143089	     61.01595290	     49.46541774	      0.00000000	      0.00000000
      2.51500000	    -13.38865310	     -1.22495935	      0.30807984	      0.18221633	      1.13467652	     -0.20787649	      0.00000000	      0.50000000	      0.00000000	      0.25000000	     70.45167439	      2.07045018	      6.26840393	    107.95436498	      1.88415911	     -4.93342053	    -13.06655511	      0.00000000	      0.00000000	     37.52424936	     -6.38031386	      0.85016741	     25.33543997	      0.44218684	     -6.78726762	      1.92944290	      0.00000000	      0.00000000	    -60.36046975	      2.03923157	     -4.53684910	     87.88402038	    -13.31683645	     51.71445630	     49.50891994	     44.95494459	      0.00000000	      0.00000000	     76.67611234	    -26.12692907	     28.36286728	     60.53079266	     49.41246108	      0.00000000	      0.00000000
      2.52000000	    -13.48909305	     -1.42027039	     -0.35718455	      0.18149744	      1.13449453	     -0.20918855	      0.00000000	      0.50000000	      0.00000000	      0.25000000	     71.87970453	      2.61856873	      6.45816353	    108.94737719	      1.90149044	     -3.95690308	    -12.49946475	      0.00000000	      0.00000000	     36.41119889	     -7.01186966	     -0.39467348	     23.94748416	      0.41796245	     -8.19231784	      3.03641821	      0.00000000	      0.00000000	    -60.25252718	      2.38706885	     -3.50761655	     88.12225563	    -13.67917369	     51.85638227	     50.05080338	     45.12169300	      0.00000000	      0.00000000	     76.27526455	    -26.09875354	     28.16901618	     60.35826171	     49.40122863	      0.00000000	      0.00000000
      2.52500000	    -13.51742464	     -1.59661332	     -0.84859086	      0.18084581	      1.13476753	     -0.21101699	      0.00000000	      0.50000000	      0.00000000	      0.25000000	     73.13225454	      2.85199633	      6.52713024	    109.79814538	      1.91633915	     -2.70401438	    -12.04333678	      0.00000000	      0.00000000	     35.28910505	     -7.48118025	     -1.56802631	     22.67888076	      0.39582114	     -9.57670568	      4.15830577	      0.00000000	      0.00000000	    -60.31431355	      2.77792788	     -2.21395869	     88.30534152	    -15.10865485	     52.11111618	     51.70643848	     45.60310487	      0.00000000	      0.00000000	     76.10334511	    -25.00259774	     27.25693780	     59.68676384	     49.31500757	      0.00000000	      0.00000000
      2.53000000	    -13.55674644	     -1.50923824	     -1.35056330	      0.18017730	      1.13567062	     -0.21241126	      0.00000000	      0.50000000	      0.00000000	      0.25000000	     74.35299612	      3.11649580	      6.97128225	    110.42170271	      1.92722228	     -1.97837135	    -11.15520392	      0.00000000	      0.00000000	     33.42233273	     -7.42834548	     -2.02391166	     19.96230873	      0.34840801	    -11.77058840	      4.15130110	      0.00000000	      0.00000000	    -60.40140163	      2.98807474	     -1.50620584	     88.52286771	    -15.41698379	     52.01540041	     52.10302923	     45.69312567	      0.00000000	      0.00000000	     75.95909632	    -24.91425662	     27.14605117	     59.51380828	     49.31432939	      0.00000000	      0.00000000
      2.53500000	    -13.78861479	     -1.75504713	     -1.69760944	      0.17893935	      1.13585215	     -0.21371519	      0.00000000	      0.50000000	      0.00000000	      0.25000000	     75.77366190	      3.38966137	      6.89941262	    110.91072418	      1.93575731	     -1.18795871	    -11.04142519	      0.00000000	      0.00000000	     32.79591599	     -7.86588967	     -2.87867905	     19.11366974	      0.33359647	    -13.22333790	      4.94997497	      0.00000000	      0.00000000	    -60.28874833	      3.56743630	     -0.72593846	     88.78832939	    -15.40759786	     51.89372478	     52.36534195	     45.72478150	      0.00000000	      0.00000000	     75.82961898	    -25.09585101	     27.06182855	     59.32940221	     49.28700984	      0.00000000	      0.00000000
      2.54000000	    -13.78280475	     -1.62798733	     -2.40275873	      0.17820377	      1.13665371	     -0.21471010	      0.00000000	      0.50000000	      0.00000000	      0.25000000	     76.87708699	      3.84695914	      7.38560202	    111.28344291	      1.94226248	     -0.17884806	    -10.06662624	      0.00000000	      0.00000000	     31.75747319	     -8.14224422	     -4.49595441	     18.24485590	      0.31843281	    -14.52731664	      6.09429351	      0.00000000	      0.00000000	    -60.45720400	      3.49573947	      0.14393132	     88.82627896	    -15.97120111	     51.62804567	     53.23462439	     45.84552825	      0.00000000	      0.00000000	     75.74636054	    -24.80424636	     26.89788899	     59.11803116	     49.27218088	      0.00000000	      0.00000000
      2.54500000	    -14.06276070	     -1.78622987	     -2.70855721	      0.17711353	      1.13713200	     -0.21615344	      0.00000000	      0.50000000	      0.00000000	      0.25000000	     78.19047349	      4.03696854	      7.39193333	    111.42249083	      1.94468933	      0.44907939	     -9.85787337	      0.00000000	      0.00000000	     31.35082677	     -8.43392976	     -5.33569497	     17.78136773	      0.31034341	    -15.82980970	      6.63139858	      0.00000000	      0.00000000	    -60.36281975	      4.00481052	      0.86285600	     88.98854830	    -16.06499516	     51.47896212	     53.60529865	     45.88583509	      0.00000000	      0.00000000	     75.63541848	    -24.91893953	     26.83569640	     58.99130446	     49.25822565	      0.00000000	      0.00000000
      2.55000000	    -14.25852424	     -1.77203919	     -3.11906511	      0.17603278	      1.13768102	     -0.21746086	      0.00000000	      0.50000000	      0.00000000	      0.25000000	     79.38047331	      4.23632400	      7.61302795	    111.48037166	      1.94569954	      1.40933686	     -9.02731152	      0.00000000	      0.00000000	     30.95871160	     -8.62065392	     -6.44160971	     17.65187548	      0.30808335	    -16.72639779	      7.17374282	      0.00000000	      0.00000000	    -60.43539417	      4.20109188	      1.78911728	     88.99205365	    -17.02170753	     51.06999629	     55.13562691	     46.05887956	      0.00000000	      0.00000000	     75.67713598	    -24.42427613	     26.78152580	     58.89371940	     49.29028087	      0.00000000	      0.00000000
      2.55500000	    -14.55852515	     -1.84735034	     -3.42499510	      0.17467489	      1.13826692	     -0.21871218	      0.00000000	      0.50000000	      0.00000000	      0.25000000	     80.56970919	      4.45867718	      7.67009442	    111.31660522	      1.94284127	      2.05080759	     -8.95251198	      0.00000000	      0.00000000	     30.81912817	     -8.80328423	     -7.11223872	     17.73561715	      0.30954491	    -17.50414036	      7.17281858	      0.00000000	      0.00000000	    -60.39068703	      4.60413460	      2.37720492	     89.13416446	    -17.01155179	     50.91203829	     55.52228730	     46.08812614	      0.00000000	      0.00000000	     75.67581066	    -24.49143084	     26.81516484	     58.77231425	     49.28674221	      0.00000000	      0.00000000
      2.56000000	    -14.90274231	     -1.93382492	     -3.80669043	      0.17322138	      1.13869959	     -0.21987834	      0.00000000	      0.50000000	      0.00000000	      0.25000000	     81.68363317	      4.69564317	      7.69599917	    110.99601740	      1.93724596	      3.01875612	     -8.57208651	      0.00000000	      0.00000000	     31.04342864	     -9.13791950	     -8.00886052	     18.54657729	      0.32369884	    -17.75805562	      7.42602255	      0.00000000	      0.00000000	    -60.38625764	      4.82404816	      3.46857442	     89.16242862	    -18.25079669	     50.61119221	     57.35776116	     46.09032242	      0.00000000	      0.00000000	     76.11344493	    -23.87468393	     27.37291426	     58.18860880	     49.39453467	      0.00000000	      0.00000000
      2.56500000	    -15.14074303	     -2.01048423	     -4.21269767	      0.17173726	      1.13951165	     -0.22071417	      0.00000000	      0.50000000	      0.00000000	      0.25000000	     82.53578933	      5.06945746	      7.73364139	    110.53033292	      1.92911823	      4.08923698	     -8.63258862	      0.00000000	      0.00000000	     31.05172175	     -9.37389065	     -8.43561762	     19.17952233	      0.33474581	    -18.11309231	      6.96653812	      0.00000000	      0.00000000	    -60.49620481	      5.06142718	      3.94416745	     89.28925222	    -18.08217600	     50.35669360	     57.64552382	     46.08591178	      0.00000000	      0.00000000	     76.25853059	    -24.04614258	     27.32435978	     58.12514572	     49.38534978	      0.00000000	      0.00000000
      2.57000000	    -15.61862265	     -2.19649193	     -4.66434925	      0.17005660	      1.13978376	     -0.22154785	      0.00000000	      0.50000000	      0.00000000	      0.25000000	     83.50111123	      5.52144621	      7.70154916	    109.89445275	      1.91802003	      5.44590077	     -8.10594323	      0.00000000	      0.00000000	     31.58600022	     -9.77394242	     -8.66647241	     20.40784930	      0.35618416	    -17.90063015	      6.41801546	      0.00000000	      0.00000000	    -60.43565769	      5.32103901	      4.68854689	     89.30515384	    -18.07216379	     49.46266680	     58.48373647	     46.02741104	      0.00000000	      0.00000000	     76.38013260	    -24.15275660	     27.39441436	     58.12030438	     49.41866925	      0.00000000	      0.00000000
      2.57500000	    -15.96269925	     -2.34840015	     -5.15389795	      0.16845941	      1.14035123	     -0.22226543	      0.00000000	      0.50000000	      0.00000000	      0.25000000	     84.16372444	      5.90882015	      7.59853977	    109.11126476	      1.90435082	      6.94025528	     -7.78870714	      0.00000000	      0.00000000	     31.96420802	    -10.07777315	     -8.65982408	     21.64860490	      0.37783943	    -17.68356215	      5.32336075	      0.00000000	      0.00000000	    -60.54616747	      5.47321639	      5.31712308	     89.35256769	    -18.12024128	     48.87980158	     59.31187140	     45.97701501	      0.00000000	      0.00000000	     76.60325245	    -24.24780198	     27.34955837	     58.07061676	     49.43213733	      0.00000000	      0.00000000
